HIERARCHY
ROOT pelvis
{
	OFFSET 0.00 0.00 0.00
	CHANNELS 6 Xposition Yposition Zposition Xrotation Yrotation Zrotation
	JOINT lfemur
	{
		OFFSET 0.00000 3.26371 0.00000
		CHANNELS 3 Xrotation Yrotation Zrotation
		JOINT ltibia
		{
			OFFSET 0.00000 0.00000 -17.39272
			CHANNELS 3 Xrotation Yrotation Zrotation
			JOINT lfoot
			{
				OFFSET 0.00000 0.00000 -17.72520
				CHANNELS 3 Xrotation Yrotation Zrotation
				JOINT ltoes
				{
					OFFSET 4.21806 0.00000 0.00000
					CHANNELS 3 Xrotation Yrotation Zrotation
				}
			}
		}
	}
	JOINT rfemur
	{
		OFFSET 0.00000 -3.26371 0.00000
		CHANNELS 3 Xrotation Yrotation Zrotation
		JOINT rtibia
		{
			OFFSET 0.00000 0.00000 -17.39272
			CHANNELS 3 Xrotation Yrotation Zrotation
			JOINT rfoot
			{
				OFFSET 0.00000 0.00000 -17.72520
				CHANNELS 3 Xrotation Yrotation Zrotation
				JOINT rtoes
				{
					OFFSET 4.21806 0.00000 0.00000
					CHANNELS 3 Xrotation Yrotation Zrotation
				}
			}
		}
	}
	JOINT thorax
	{
		OFFSET -1.96850 0.00000 6.16593
		CHANNELS 6 Xposition Yposition Zposition Xrotation Yrotation Zrotation
		JOINT head
		{
			OFFSET 0.00000 0.00000 18.21355
			CHANNELS 6 Xposition Yposition Zposition Xrotation Yrotation Zrotation
		}
		JOINT lclavicle
		{
			OFFSET 0.00000 0.00000 15.13875
			CHANNELS 3 Xrotation Yrotation Zrotation
			JOINT lhumerus
			{
				OFFSET 0.00000 7.18963 -1.52650
				CHANNELS 3 Xrotation Yrotation Zrotation
				JOINT lradius
				{
					OFFSET 0.00000 0.00000 -10.12096
					CHANNELS 3 Xrotation Yrotation Zrotation
					JOINT lhand
					{
						OFFSET 0.00000 0.00000 -10.45726
						CHANNELS 3 Xrotation Yrotation Zrotation
					}
				}
			}
		}
		JOINT rclavicle
		{
			OFFSET 0.00000 0.00000 15.13875
			CHANNELS 3 Xrotation Yrotation Zrotation
			JOINT rhumerus
			{
				OFFSET 0.00000 -7.18963 -1.52650
				CHANNELS 3 Xrotation Yrotation Zrotation
				JOINT rradius
				{
					OFFSET 0.00000 0.00000 -10.12096
					CHANNELS 3 Xrotation Yrotation Zrotation
					JOINT rhand
					{
						OFFSET 0.00000 0.00000 -10.45726
						CHANNELS 3 Xrotation Yrotation Zrotation
					}
				}
			}
		}
	}
}
MOTION
Frames: 22
Frame Time: 0.008333
 68.1906 -10.3552 22.9193 0.2451 -3.5105 97.5953 54.4470 -46.1970 36.0846 -180.0000 84.0960 180.0000 0.0000 -14.1763 -9.0054 0.0000 -45.1304 -0.0000 -41.4911 -31.6914 -30.3327 -180.0000 87.7181 180.0000 0.0000 -13.5209 -1.4830 0.0000 -47.8303 -0.0000 67.9284 -11.4079 28.2091 4.8743 9.5948 12.9040 69.0403 -5.9674 46.2713 -8.5818 2.8725 53.0738 -19.7175 0.0000 -7.3355 59.5552 -8.7544 40.3247 -180.0000 -80.2367 -162.2807 3.1281 4.1506 -0.0000 9.3509 -0.0000 9.6128 -46.3358 -37.5174 35.9255 180.0000 -73.0456 -157.0009 14.0920 -4.6453 -0.0000
 68.1519 -10.3771 22.9728 0.1933 -3.5722 97.6049 54.2038 -46.2787 35.8972 -180.0000 84.2312 180.0000 -0.0000 -14.2147 -8.8371 0.0000 -44.9439 -0.0000 -41.4052 -31.6572 -30.3093 -180.0000 88.0371 180.0000 0.0000 -13.3595 -1.4651 0.0000 -47.7823 -0.0000 67.8794 -11.4109 28.2594 4.9242 9.7026 12.8228 68.9793 -5.9187 46.3043 -8.5330 2.7269 53.0647 -19.7311 0.0000 -7.4102 59.5914 -8.7686 40.3304 180.0000 -80.3506 -162.3249 3.2936 4.0442 0.0000 9.3412 0.0000 9.6053 -46.4646 -37.4295 35.8136 180.0000 -73.1933 -157.0545 14.0056 -4.7046 0.0000
 68.1096 -10.3999 23.0328 0.1325 -3.6376 97.6212 53.9526 -46.3670 35.7161 -180.0000 84.3812 180.0000 0.0000 -14.2081 -8.6286 -0.0000 -44.8662 -0.0000 -41.3105 -31.6154 -30.2923 -180.0000 88.3893 180.0000 -0.0000 -13.1543 -1.4499 0.0000 -47.7878 -0.0000 67.8215 -11.4145 28.3158 4.9682 9.8194 12.7686 68.9094 -5.8609 46.3385 -8.4827 2.5393 53.0568 -19.7512 0.0000 -7.4952 59.6137 -8.8331 40.2927 180.0000 -80.3980 -162.3559 3.1986 3.9321 0.0000 9.3406 -0.0000 9.5733 -46.6281 -37.2921 35.6266 180.0000 -73.3298 -156.9993 14.1455 -4.8639 0.0000
 68.0597 -10.4235 23.0983 0.0610 -3.7064 97.6232 53.7108 -46.4395 35.5689 -180.0000 84.5342 180.0000 0.0000 -14.2363 -8.4897 0.0000 -44.7082 -0.0000 -41.2008 -31.5795 -30.2428 -180.0000 88.7806 180.0000 -0.0000 -12.9440 -1.4020 0.0000 -47.7428 -0.0000 67.7606 -11.4226 28.3772 5.0220 9.9430 12.6594 68.8385 -5.8075 46.3814 -8.4378 2.3971 53.0792 -19.7543 0.0000 -7.5891 59.6283 -8.8746 40.3517 180.0000 -80.4786 -162.2888 3.2671 4.0581 0.0000 9.3193 -0.0000 9.6135 -46.7854 -37.2017 35.4784 180.0000 -73.5070 -157.0611 14.2330 -4.9057 0.0000
 68.0089 -10.4477 23.1702 -0.0203 -3.7807 97.6361 53.4729 -46.5160 35.4455 -180.0000 84.7039 180.0000 0.0000 -14.2241 -8.3405 0.0000 -44.6086 -0.0000 -41.0791 -31.5375 -30.2043 -180.0000 89.2007 180.0000 0.0000 -12.6988 -1.3844 0.0000 -47.7412 -0.0000 67.6928 -11.4334 28.4444 5.0716 10.0791 12.5365 68.7638 -5.7506 46.4292 -8.4296 2.2277 53.1332 -19.7505 0.0000 -7.6676 59.6636 -8.9312 40.3602 180.0000 -80.5595 -162.2986 3.1583 4.0635 -0.0000 9.2966 0.0000 9.6415 -46.9635 -37.1119 35.3186 180.0000 -73.6785 -157.0371 14.0956 -4.7967 0.0000
 67.9514 -10.4718 23.2477 -0.1120 -3.8640 97.6478 53.2136 -46.5938 35.3021 -180.0000 84.8924 180.0000 -0.0000 -14.2339 -8.2060 0.0000 -44.4355 -0.0000 -40.9473 -31.4862 -30.1565 -180.0000 89.6650 180.0000 -0.0000 -12.4484 -1.3446 -0.0000 -47.7434 -0.0000 67.6169 -11.4384 28.5162 5.1255 10.1821 12.4111 68.6715 -5.6939 46.4773 -8.3351 2.0755 53.1494 -19.7398 0.0000 -7.7277 59.7058 -9.0036 40.3050 180.0000 -80.6182 -162.0427 3.1997 4.1426 0.0000 9.2815 -0.0000 9.6577 -47.1467 -37.0316 35.1817 180.0000 -73.9091 -156.8934 14.1162 -4.9121 0.0000
 67.8876 -10.4955 23.3303 -0.2115 -3.9536 97.6691 52.9830 -46.6641 35.2186 -180.0000 85.0811 180.0000 0.0000 -14.2498 -8.0967 0.0000 -44.2441 -0.0000 -40.8102 -31.4173 -30.1126 -0.0000 89.8301 0.0000 0.0000 -12.1968 -1.3201 0.0000 -47.7111 -0.0000 67.5373 -11.4465 28.5944 5.1753 10.2907 12.2889 68.5767 -5.6372 46.5322 -8.2600 1.9165 53.1124 -19.7249 0.0000 -7.8193 59.7230 -9.1034 40.2812 180.0000 -80.6890 -161.7546 3.4153 4.2342 -0.0000 9.2681 -0.0000 9.6827 -47.3451 -36.9296 34.9923 180.0000 -74.1156 -156.7925 14.1490 -4.9680 -0.0000
 67.8160 -10.5098 23.4203 -0.3464 -4.0952 97.8278 52.6847 -46.8821 35.0028 -180.0000 85.2878 180.0000 0.0000 -14.1854 -7.9222 0.0000 -44.3413 0.0000 -40.6896 -31.2022 -30.2085 -0.0000 89.2345 0.0000 -0.0000 -11.9654 -1.2254 0.0000 -47.6668 -0.0000 67.4348 -11.4535 28.6810 5.3390 10.3482 12.0649 68.4754 -5.5809 46.5925 -8.2394 1.7487 52.9712 -19.7491 0.0000 -7.9227 59.7367 -9.2395 40.2397 -180.0000 -80.7721 -161.4418 3.9623 4.5242 -0.0000 9.2722 -0.0000 9.6434 -47.6344 -36.8221 34.7853 180.0000 -74.2747 -156.6458 14.2385 -4.9256 -0.0000
 67.7416 -10.5389 23.5141 -0.4614 -4.2059 97.8236 52.3900 -46.9682 34.8554 -180.0000 85.5042 180.0000 -0.0000 -14.2227 -7.7470 0.0000 -44.0192 -0.0000 -40.5412 -31.1666 -30.1656 -0.0000 88.6963 0.0000 -0.0000 -11.5743 -1.1700 0.0000 -47.7279 -0.0000 67.3443 -11.4604 28.7677 5.4083 10.4484 11.9131 68.3605 -5.5263 46.6567 -8.1382 1.5635 52.9282 -19.7132 0.0000 -7.9995 59.7693 -9.3029 40.2176 -180.0000 -80.8026 -161.1475 3.9180 4.6446 0.0000 9.2215 -0.0000 9.7114 -47.8564 -36.7836 34.6346 180.0000 -74.5594 -156.5900 14.1153 -5.0904 0.0000
 67.6580 -10.5563 23.6125 -0.6157 -4.3569 97.9528 52.0358 -47.1895 34.5973 -180.0000 85.7246 180.0000 -0.0000 -14.2439 -7.5544 0.0000 -43.9495 -0.0000 -40.3929 -30.9691 -30.2188 -0.0000 88.0184 0.0000 0.0000 -11.2768 -1.0963 -0.0000 -47.7070 -0.0000 67.2314 -11.4650 28.8630 5.5486 10.4978 11.6953 68.2475 -5.4636 46.7281 -8.0939 1.3810 52.8955 -19.6968 0.0000 -8.0695 59.7471 -9.4626 40.0890 180.0000 -80.8027 -161.0133 4.1740 4.6270 -0.0000 9.2225 -0.0000 9.6516 -48.0500 -36.7073 34.3981 180.0000 -74.7274 -156.4185 14.4680 -4.9765 0.0000
 67.5631 -10.5810 23.7165 -0.7414 -4.4705 97.9635 51.7446 -47.2615 34.5165 -180.0000 85.9429 180.0000 -0.0000 -14.2952 -7.4322 0.0000 -43.5475 -0.0000 -40.2419 -30.8828 -30.1707 -0.0000 87.3811 0.0000 -0.0000 -10.8524 -1.0672 0.0000 -47.7865 -0.0000 67.1185 -11.4678 28.9608 5.6372 10.5680 11.6077 68.1182 -5.4015 46.8012 -8.0096 1.1752 52.7386 -19.6650 0.0000 -8.2126 59.7525 -9.5669 40.0342 180.0000 -80.8545 -161.0052 3.9723 4.7859 0.0000 9.1523 -0.0000 9.6503 -48.2958 -36.6121 34.2206 -180.0000 -74.9709 -156.4292 14.2651 -5.0458 0.0000
 67.4655 -10.5965 23.8267 -0.8879 -4.5931 97.9957 51.4109 -47.3371 34.3903 -180.0000 86.1997 180.0000 -0.0000 -14.3200 -7.3134 0.0000 -43.3915 -0.0000 -40.0801 -30.7383 -30.1411 -0.0000 86.6625 0.0000 0.0000 -10.4865 -1.0278 -0.0000 -47.7082 -0.0000 66.9966 -11.4692 29.0652 5.7238 10.6208 11.5279 67.9822 -5.3378 46.8819 -7.9161 0.9885 52.6732 -19.6347 0.0000 -8.3385 59.7526 -9.7311 39.9082 180.0000 -80.8934 -161.1338 4.0925 4.8316 0.0000 9.1215 -0.0000 9.6157 -48.5144 -36.5047 34.0197 180.0000 -75.1960 -156.4314 14.0714 -5.1213 -0.0000
 67.3492 -10.6113 23.9315 -1.0729 -4.7988 98.2738 51.1106 -47.6892 34.2216 -180.0000 86.3602 180.0000 -0.0000 -14.4092 -7.1972 0.0000 -43.0020 -0.0000 -39.9974 -30.3822 -30.3606 -0.0000 85.8706 0.0000 0.0000 -10.0971 -0.9339 0.0000 -47.8382 -0.0000 66.8494 -11.4736 29.1785 5.9978 10.6170 11.1070 67.8456 -5.2704 46.9732 -7.8887 0.7970 52.6628 -19.6324 0.0000 -8.4960 59.6913 -9.6853 39.7948 -180.0000 -80.7716 -161.3937 3.0694 4.6469 0.0000 9.1203 -0.0000 9.5436 -48.7896 -36.4796 33.7497 180.0000 -75.4523 -156.2984 14.3992 -5.4200 0.0000
 67.2387 -10.6332 24.0550 -1.2276 -4.9136 98.2426 50.7605 -47.7038 34.1404 -180.0000 86.6633 180.0000 -0.0000 -14.3553 -7.1027 0.0000 -42.9757 -0.0000 -39.8199 -30.2760 -30.2858 -0.0000 85.0840 0.0000 -0.0000 -9.6319 -0.8548 0.0000 -47.7458 -0.0000 66.7183 -11.4717 29.2979 6.0610 10.6614 11.1702 67.6945 -5.2028 47.0655 -7.7975 0.6068 52.5689 -19.6354 0.0000 -8.6016 59.6754 -9.9919 39.5957 -180.0000 -80.8584 -161.4888 3.3149 4.6100 -0.0000 9.0496 -0.0000 9.5371 -49.0189 -36.2451 33.5063 -180.0000 -75.6148 -156.3215 14.1703 -5.4109 -0.0000
 67.1193 -10.6445 24.1853 -1.4023 -5.0346 98.2394 50.4576 -47.6990 34.1584 -180.0000 86.9691 180.0000 0.0000 -14.4013 -7.0526 0.0000 -42.7152 -0.0000 -39.6432 -30.0938 -30.2363 -0.0000 84.2149 0.0000 0.0000 -9.1400 -0.7708 0.0000 -47.8206 -0.0000 66.5747 -11.4700 29.4199 6.1287 10.6950 11.0926 67.5417 -5.1391 47.1707 -7.7061 0.4347 52.5661 -19.5934 0.0000 -8.7051 59.6981 -10.1571 39.4287 -180.0000 -80.8874 -161.7846 3.4450 4.6025 0.0000 9.0087 -0.0000 9.5119 -49.2777 -36.1090 33.2409 180.0000 -75.8221 -156.3421 14.0760 -5.5089 0.0000
 66.9875 -10.6547 24.3222 -1.5901 -5.1651 98.3002 50.0883 -47.7530 34.1048 -180.0000 87.3010 180.0000 -0.0000 -14.3883 -6.9971 0.0000 -42.7285 -0.0000 -39.4705 -29.8440 -30.2183 -0.0000 83.2743 0.0000 -0.0000 -8.6678 -0.7479 0.0000 -47.7965 -0.0000 66.4203 -11.4644 29.5550 6.2229 10.7018 11.0298 67.3781 -5.0727 47.2809 -7.5836 0.2127 52.4286 -19.5796 0.0000 -8.8231 59.6705 -10.3882 39.2013 180.0000 -80.9294 -162.3094 3.2906 4.4886 0.0000 8.9950 0.0000 9.4282 -49.5720 -35.8981 32.9397 180.0000 -75.9938 -156.2396 14.0526 -5.7662 0.0000
 66.8368 -10.6668 24.4522 -1.8100 -5.3483 98.6032 49.6787 -48.0733 33.9614 -180.0000 87.5428 180.0000 -0.0000 -14.5029 -6.9652 0.0000 -42.2114 -0.0000 -39.4241 -29.3911 -30.4809 -0.0000 82.2702 0.0000 -0.0000 -8.1733 -0.6166 0.0000 -47.8546 -0.0000 66.2449 -11.4628 29.7017 6.4657 10.6411 10.6402 67.2090 -5.0067 47.4038 -7.5551 0.0248 52.3623 -19.5564 0.0000 -8.9366 59.5002 -10.5962 39.0449 180.0000 -80.9430 -162.4724 4.0684 4.3346 -0.0000 9.0459 0.0000 9.3698 -49.8697 -35.7389 32.6598 180.0000 -76.2335 -156.3081 14.0484 -5.7557 -0.0000
 66.6893 -10.6859 24.6073 -2.0111 -5.4655 98.5609 49.3269 -48.0134 34.0267 -180.0000 87.9376 180.0000 0.0000 -14.4438 -6.9556 -0.0000 -42.1818 -0.0000 -39.1593 -29.2380 -30.2825 -0.0000 81.2319 0.0000 0.0000 -7.5263 -0.6212 0.0000 -47.9090 -0.0000 66.0819 -11.4584 29.8477 6.4985 10.6613 10.6686 67.0208 -4.9461 47.5273 -7.3684 -0.2226 52.2219 -19.5279 0.0000 -9.0400 59.5875 -10.8046 38.7858 180.0000 -80.9621 -162.7891 3.6190 4.4050 0.0000 8.9493 -0.0000 9.3172 -50.1188 -35.5217 32.3847 180.0000 -76.3892 -156.3771 13.9046 -5.5221 0.0000
 66.5438 -10.6850 24.7629 -2.2356 -5.5972 98.5874 48.9659 -47.9687 34.0722 -180.0000 88.3511 180.0000 0.0000 -14.3908 -7.0546 0.0000 -42.2497 -0.0000 -38.9647 -28.9523 -30.2658 -0.0000 80.1520 0.0000 -0.0000 -6.9658 -0.5724 -0.0000 -47.9214 -0.0000 65.9075 -11.4508 30.0066 6.5578 10.6448 10.6366 66.8309 -4.8846 47.6623 -7.2396 -0.4594 52.0480 -19.5129 0.0000 -9.1917 59.5934 -11.0053 38.6042 180.0000 -81.0112 -162.9523 3.6037 4.4569 -0.0000 8.9688 -0.0000 9.2761 -50.3356 -35.2131 32.0435 -180.0000 -76.5440 -156.1863 14.1318 -5.6231 0.0000
 66.3546 -10.6920 24.9189 -2.4922 -5.7323 98.9625 48.4680 -48.2588 34.0240 -180.0000 88.6877 180.0000 0.0000 -14.3457 -7.2267 0.0000 -42.0110 -0.0000 -38.9652 -28.3814 -30.5436 -0.0000 78.9369 0.0000 0.0000 -6.3112 -0.4713 0.0000 -47.9757 -0.0000 65.7076 -11.4519 30.1880 6.7764 10.5630 10.3259 66.6320 -4.8156 47.8069 -7.1695 -0.7535 51.7966 -19.5382 0.0000 -9.4317 59.4481 -11.1618 38.2371 180.0000 -80.9185 -162.9171 3.7200 4.4830 0.0000 8.9570 0.0000 9.0352 -50.5702 -35.0242 31.7211 -180.0000 -76.8285 -156.1263 14.2977 -5.5094 0.0000
 66.1849 -10.6969 25.0950 -2.7301 -5.8351 98.9157 48.1368 -48.1055 34.2367 -180.0000 89.1709 180.0000 -0.0000 -14.3198 -7.3352 0.0000 -41.8954 -0.0000 -38.6736 -28.1471 -30.3184 -0.0000 77.7031 0.0000 0.0000 -5.5795 -0.4811 -0.0000 -48.0693 -0.0000 65.5180 -11.4493 30.3693 6.7832 10.5526 10.4126 66.4251 -4.7477 47.9618 -6.9865 -1.0345 51.6425 -19.5322 0.0000 -9.5870 59.4543 -11.4173 37.9411 180.0000 -80.9490 -162.7698 3.6285 4.3032 0.0000 8.9098 -0.0000 8.9817 -50.8222 -34.5925 31.3303 180.0000 -76.9560 -156.0322 14.1624 -5.3633 0.0000
 65.9876 -10.6949 25.2724 -3.0147 -5.9061 99.2352 47.5075 -48.2887 34.1924 -180.0000 89.6363 180.0000 0.0000 -14.2732 -7.4853 0.0000 -41.7914 0.0000 -38.6176 -27.6003 -30.4390 -0.0000 76.3734 0.0000 0.0000 -4.8623 -0.4968 0.0000 -48.0973 -0.0000 65.3018 -11.4442 30.5691 6.8959 10.4409 10.1622 66.2111 -4.6790 48.1307 -6.9062 -1.2973 51.3827 -19.5402 0.0000 -9.9488 59.3385 -11.3848 37.7028 180.0000 -80.8578 -162.6056 3.3763 4.3433 -0.0000 8.9801 -0.0000 8.8152 -51.1253 -34.2067 30.9305 -180.0000 -77.1531 -155.8117 14.4024 -5.4781 0.0000
